<?xml version="1.0" encoding="UTF-8"?>
<svg id="Layer_2" data-name="Layer 2" xmlns="http://www.w3.org/2000/svg" viewBox="0 0 392.97 125">
  <defs>
    <style>
      .cls-2, .cls-3 {
        fill: #39aae1;
      }

      .cls-4 {
        fill: #ee2b2d;
      }

      .cls-3 {
        font-family: BerlinSansFB-Reg, 'Berlin Sans FB';
        font-size: 25.29px;
        letter-spacing: .07em;
      }
    </style>
  </defs>
  <g id="Layer_4" data-name="Layer 4">
    <g id="logo1">
      <g>
        <g>
          <path class="cls-4" d="M21.25,60.47c7.68,0,13.91-6.23,13.91-13.91s-6.23-13.91-13.91-13.91-13.91,6.23-13.91,13.91,6.23,13.91,13.91,13.91ZM21.25,38.28c4.57,0,8.28,3.71,8.28,8.28s-3.71,8.28-8.28,8.28-8.28-3.71-8.28-8.28,3.71-8.28,8.28-8.28Z"/>
          <path class="cls-4" d="M48.91,79.06c0-.31,0-.94-.78-1.41s-1.41-.47-1.87-.47-6.72-.31-6.72-.31c0,0-2.34-11.72-3.75-12.81-1.41-1.09-2.5-1.56-3.44-1.56H10.24s-1.96-.16-2.43,1.09l-6.09,22.03c.05,1.05.47,1.97.94,2.34.4.32,1.98,1.5,3.46,2.66.77.89,1.68,1.99,2.01,2.66.62,1.25.78,1.88.94,3.75s-.16,6.41,0,6.56c.12.12,3.68.06,5.4.02.73.01,1.53.02,2.41.02h0c10.6.06,30.96-.2,30.96-.2,0,0,.6,0,.92-.47.31-.47.47-.47.47-.94s-.31-22.66-.31-22.97h0ZM20.2,79.78v23.82h-3.33v-4.22c0-.78-.3-4.02-.3-4.02h0c.02-.44.01-.74-.01-.82-.16-.47-1.09-3.28-2.34-4.22-.48-.36-1.61-.91-2.81-1.49-1.1-.82-2.29-.98-2.81-1.82-.62-1.01-.47-1.68-.47-2.52s3.28-13.78,3.59-14.96.78-1.34,1.35-1.85c.57-.51,19.44,0,19.44,0l.08.07c.59,2.5,1.41,8.23,1.69,10.19h-13.03c-.78,0-1.05,1.85-1.05,1.85h0Z"/>
        </g>
        <g>
          <path class="cls-2" d="M104.96,60.52c-7.68,0-13.91-6.23-13.91-13.91s6.23-13.91,13.91-13.91,13.91,6.23,13.91,13.91-6.23,13.91-13.91,13.91ZM104.96,38.33c-4.57,0-8.28,3.71-8.28,8.28s3.71,8.28,8.28,8.28,8.28-3.71,8.28-8.28-3.71-8.28-8.28-8.28Z"/>
          <path class="cls-2" d="M77.3,79.11c0-.31,0-.94.78-1.41s1.41-.47,1.87-.47,6.72-.31,6.72-.31c0,0,2.34-11.72,3.75-12.81s2.5-1.56,3.44-1.56h22.1s1.96-.16,2.43,1.09l6.09,22.03c-.05,1.05-.47,1.97-.94,2.34-.4.32-1.98,1.5-3.46,2.66-.77.89-1.68,1.99-2.01,2.66-.62,1.25-.78,1.87-.94,3.75s.16,6.41,0,6.56c-.12.12-3.68.06-5.4.02-.73.01-1.53.02-2.41.02h0c-10.6.06-30.96-.2-30.96-.2,0,0-.6,0-.92-.47s-.47-.47-.47-.94.31-22.66.31-22.97h0ZM106.01,79.83v23.82h3.33v-4.22c0-.78.3-4.02.3-4.02h0c-.02-.44-.01-.74.01-.82.16-.47,1.09-3.28,2.34-4.22.48-.36,1.61-.91,2.81-1.49,1.1-.82,2.29-.98,2.81-1.82.62-1.01.47-1.68.47-2.52s-3.28-13.78-3.59-14.96c-.31-1.18-.78-1.34-1.35-1.85-.57-.51-19.44,0-19.44,0l-.08.07c-.59,2.5-1.41,8.23-1.69,10.19h13.03c.78,0,1.05,1.85,1.05,1.85h0Z"/>
        </g>
        <g>
          <path class="cls-4" d="M86.89,22.52h-28.59v27.93h17.97l10.62,10.34V22.52ZM82.75,52.21l-5.6-6.09h-14.72v-18.91l20.31-.26v25.26h0Z"/>
          <polygon class="cls-2" points="55.78 37.36 49.23 37.36 43.63 43.46 43.63 18.2 63.95 18.46 63.95 20.63 68.09 20.63 68.09 14.06 68.09 13.76 39.49 13.76 39.49 52.02 50.12 41.69 55.78 41.69 55.78 37.36"/>
        </g>
        <path class="cls-2" d="M117.19,102.96s.47,3.53,0,3.96-39.03,0-39.03,0c0,0-.97-.52-.97-1.14s-.2-3.7-.2-3.7"/>
        <path class="cls-4" d="M9.05,102.95s-.47,3.53,0,3.96c.47.42,39.03,0,39.03,0,0,0,.97-.52.97-1.14s.2-3.7.2-3.7"/>
      </g>
    </g>
    <text class="cls-3" transform="translate(135 56.69)"><tspan x="0" y="0">DEBATNÍ SPOLEK</tspan><tspan x="0" y="30.35">DEBATNÍHO DENÍKU</tspan></text>
  </g>
</svg>